<svg width="14" height="14" xmlns="http://www.w3.org/2000/svg"><g fill="none" fill-rule="evenodd"><path fill="#FFF" d="M-954-799H486V981H-954z"/><path d="M11.667 1.167h-.584V.583a.583.583 0 1 0-1.166 0v.584H7.583V.583a.583.583 0 1 0-1.166 0v.584H4.083V.583a.583.583 0 1 0-1.166 0v.584h-.584A2.333 2.333 0 0 0 0 3.5v8.167A2.333 2.333 0 0 0 2.333 14h9.334A2.333 2.333 0 0 0 14 11.667V3.5a2.333 2.333 0 0 0-2.333-2.333zM2.333 2.333h.584v.584a.583.583 0 0 0 1.166 0v-.584h2.334v.584a.583.583 0 0 0 1.166 0v-.584h2.334v.584a.583.583 0 0 0 1.166 0v-.584h.584c.644 0 1.166.523 1.166 1.167v1.167H1.167V3.5c0-.644.522-1.167 1.166-1.167zm9.334 10.5H2.333a1.167 1.167 0 0 1-1.166-1.166V5.833h11.666v5.834c0 .644-.522 1.166-1.166 1.166z" fill="#B7B8BA" fill-rule="nonzero"/></g></svg>