<svg width="40" height="34" xmlns="http://www.w3.org/2000/svg"><g fill="none" fill-rule="evenodd"><path fill="#FFF" d="M-480-1267H960v4891H-480z"/><path d="M39.952 14.315a1.003 1.003 0 0 0-1.256-.642l-1.784.56-.313-2.748c-.602-5.284-1.53-7.956-3.313-9.531C31.42.307 28.813.136 25.332.074H14.667c-3.48.062-6.089.233-7.953 1.88C4.93 3.529 4.002 6.201 3.4 11.485l-.313 2.747-1.784-.56a1.003 1.003 0 0 0-1.256.643.985.985 0 0 0 .65 1.24l2.162.677-.679 5.961-.001.016-.302 2.65c-.113.992.181 1.933.83 2.65.421.465.954.793 1.552.965v2.275c0 1.751 1.443 3.176 3.217 3.176s3.217-1.425 3.217-3.176v-2.137h18.613v2.137c0 1.751 1.443 3.176 3.217 3.176 1.775 0 3.218-1.425 3.218-3.176v-2.275a3.314 3.314 0 0 0 2.381-3.615l-.982-8.626 2.162-.678a.985.985 0 0 0 .65-1.24zM8.693 30.749a1.21 1.21 0 0 1-1.217 1.202 1.21 1.21 0 0 1-1.217-1.202v-2.137h2.434v2.137zm25.048 0a1.21 1.21 0 0 1-1.218 1.202 1.21 1.21 0 0 1-1.217-1.202v-2.137h2.435v2.137zm2.06-4.556c-.26.287-.636.445-1.06.445H5.259c-.424 0-.801-.158-1.06-.445-.265-.292-.383-.687-.335-1.114l.203-1.78h4.38c.553 0 1-.441 1-.987a.994.994 0 0 0-1-.987H4.293l1.096-9.62C6.47 2.199 8.543 2.158 14.694 2.05h10.61c6.151.108 8.225.15 9.308 9.657l1.096 9.62h-4.156c-.552 0-1 .441-1 .986 0 .546.448.988 1 .988h4.38l.203 1.779c.049.427-.07.822-.334 1.114zm-3.232-9.348c-2.74.658-7.438 1.05-12.57 1.05-5.13 0-9.83-.393-12.569-1.05a.987.987 0 0 1-.735-1.192 1 1 0 0 1 1.208-.726c2.555.613 7.19.994 12.097.994 4.906 0 9.542-.381 12.096-.994a1 1 0 0 1 1.208.726.987.987 0 0 1-.735 1.192zm-5.46 5.467a.994.994 0 0 1-1 .988H13.89c-.552 0-1-.442-1-.988a.994.994 0 0 1 1-.987h12.22c.552 0 1 .442 1 .987zM20.6 13.526a5.638 5.638 0 0 1 3.29-4.215 5.74 5.74 0 0 1 4.367-.129 5.64 5.64 0 0 1 3.18 2.957.982.982 0 0 1-.502 1.305 1.006 1.006 0 0 1-1.322-.495 3.664 3.664 0 0 0-2.066-1.921 3.727 3.727 0 0 0-2.836.083 3.664 3.664 0 0 0-2.138 2.74.997.997 0 0 1-1.151.811.989.989 0 0 1-.822-1.136z" fill="#B19163" fill-rule="nonzero"/></g></svg>