<svg width="40" height="36" xmlns="http://www.w3.org/2000/svg"><g fill="none" fill-rule="evenodd"><path fill="#FFF" d="M-700-1266H740v4891H-700z"/><g fill="#B19163" fill-rule="nonzero"><path d="M10.886 8.877a.785.785 0 0 0-.552-.23.784.784 0 0 0-.553 1.341c.146.146.347.23.553.23a.785.785 0 0 0 .552-1.341z"/><path d="M35.365 0h-5.521a.784.784 0 0 0-.782.786c0 .434.35.786.782.786h5.52c1.695 0 3.074 1.387 3.074 3.092v9.851c0 1.705-1.379 3.092-3.073 3.092H35a.784.784 0 0 0-.781.786v4.35l-4.877-4.906a.78.78 0 0 0-.552-.23H16.823c-1.694 0-3.073-1.387-3.073-3.092V4.664c0-1.705 1.379-3.092 3.073-3.092h5.62a.784.784 0 0 0 .781-.786.784.784 0 0 0-.781-.786h-5.62c-2.556 0-4.636 2.092-4.636 4.664v9.851c0 2.572 2.08 4.664 4.636 4.664H20v5.843c0 1.719-1.39 3.118-3.099 3.118h-3.906a.78.78 0 0 0-.553.23l-4.916 4.946v-4.39a.784.784 0 0 0-.781-.786H4.66c-1.708 0-3.098-1.399-3.098-3.118V13.336c0-1.719 1.39-3.118 3.098-3.118h2.136a.784.784 0 0 0 .781-.786.784.784 0 0 0-.781-.786H4.66C2.091 8.646 0 10.75 0 13.336v11.686c0 2.586 2.091 4.69 4.661 4.69h1.303v5.502a.786.786 0 0 0 .78.786c.204 0 .404-.08.553-.23l6.021-6.058h3.583c2.57 0 4.662-2.104 4.662-4.69v-5.843h6.903l5.982 6.018a.779.779 0 0 0 1.333-.556v-5.48C38.143 18.947 40 16.945 40 14.514v-9.85C40 2.092 37.92 0 35.365 0z"/><path d="M26.646.23a.784.784 0 0 0-.552-.23.785.785 0 0 0-.553 1.342c.146.146.347.23.553.23A.784.784 0 0 0 26.646.23zM10.334 16.507h-4.22a.784.784 0 0 0-.78.786c0 .434.35.786.78.786h4.22a.784.784 0 0 0 .78-.786.784.784 0 0 0-.78-.786zm4.879 3.773H6.115a.784.784 0 0 0-.781.786c0 .434.35.786.78.786h9.1a.784.784 0 0 0 .78-.786.784.784 0 0 0-.78-.787zm0 3.772h-4.549a.784.784 0 0 0-.781.786c0 .434.35.786.781.786h4.55a.784.784 0 0 0 .78-.786.784.784 0 0 0-.78-.786z"/></g></g></svg>