<svg width="40" height="40" xmlns="http://www.w3.org/2000/svg"><g fill="none" fill-rule="evenodd"><path fill="#FFF" d="M-920-1262H520v4891H-920z"/><g fill="#B19163" fill-rule="nonzero"><path d="M11.44 30.41l-3.25-3.244a.78.78 0 0 0-1.103 0 .777.777 0 0 0 0 1.1l3.25 3.244a.778.778 0 0 0 1.103-1.1zm2.173 2.168l-.033-.032a.78.78 0 0 0-1.102 0 .777.777 0 0 0 0 1.1l.031.032a.778.778 0 0 0 1.103 0 .777.777 0 0 0 0-1.1zM34.99 0H18.426c-2.74 0-4.97 2.225-4.97 4.96v9.064c0 2.735 2.23 4.96 4.97 4.96h2.687v4.026a.778.778 0 0 0 1.33.55l4.586-4.576h7.963c2.74 0 4.97-2.225 4.97-4.96V4.96c0-2.735-2.23-4.96-4.97-4.96zm3.411 14.024a3.411 3.411 0 0 1-3.41 3.404h-8.286a.78.78 0 0 0-.552.228l-3.482 3.476v-2.926a.779.779 0 0 0-.78-.778h-3.466a3.411 3.411 0 0 1-3.41-3.404V4.96a3.411 3.411 0 0 1 3.41-3.404H34.99c1.88 0 3.41 1.527 3.41 3.404v9.064z"/><path d="M39.732 37.824a2.462 2.462 0 0 0-1.75-.724c-.662 0-1.283.257-1.75.724l-.19.188a.911.911 0 0 1-.647.268.911.911 0 0 1-.648-.268 2.482 2.482 0 0 0-3.5 0l-.087.086a.911.911 0 0 1-.648.268.911.911 0 0 1-.647-.268l-1.184-1.181a3.73 3.73 0 0 0 .628-1.553 3.694 3.694 0 0 0-1.05-3.238l-4.508-4.5a3.735 3.735 0 0 0-4.111-.797l-3.073 1.302a2.17 2.17 0 0 1-2.39-.464l-2.095-2.091a2.175 2.175 0 0 1-.43-2.46l1.304-2.768a3.742 3.742 0 0 0-.74-4.234L7.77 11.677a3.71 3.71 0 0 0-3.244-1.047 3.705 3.705 0 0 0-2.75 2.011l.697.35-.697-.35a16.161 16.161 0 0 0 3.027 18.744l3.71 3.703a16.232 16.232 0 0 0 11.48 4.754 16.26 16.26 0 0 0 7.3-1.733 3.78 3.78 0 0 0 .243-.134l1.226 1.224c.468.466 1.09.723 1.75.723a2.46 2.46 0 0 0 1.75-.723l.087-.086a.919.919 0 0 1 1.296 0c.467.466 1.089.723 1.75.723s1.283-.257 1.75-.723l.189-.188a.911.911 0 0 1 .648-.268c.244 0 .475.095.648.268a.78.78 0 0 0 1.102 0 .777.777 0 0 0 0-1.1zM3.169 13.34a2.163 2.163 0 0 1 1.605-1.174 2.161 2.161 0 0 1 1.893.611l4.446 4.437c.65.648.823 1.641.432 2.471l-.842 1.788-7.734-7.718c.065-.139.13-.277.2-.415zm16.825 24.945c-3.805 0-7.555-1.48-10.379-4.298l-3.71-3.702A14.608 14.608 0 0 1 2.344 15.33l7.69 7.675a3.735 3.735 0 0 0 .947 3.67l2.095 2.092a3.722 3.722 0 0 0 3.679.945l7.845 7.83c-1.505.498-3.06.742-4.605.742zm7.776-3.169a2.159 2.159 0 0 1-1.177 1.602c-.138.07-.276.136-.415.2l-7.856-7.84 1.927-.816a2.18 2.18 0 0 1 2.4.465l4.508 4.5c.502.5.726 1.19.613 1.89z"/></g></g></svg>