<svg width="20" height="20" xmlns="http://www.w3.org/2000/svg"><g fill="#FFF"><path d="M13.333 6.667a3.333 3.333 0 1 0-6.666 0 3.333 3.333 0 0 0 6.666 0zm-5 0a1.667 1.667 0 1 1 3.334 0 1.667 1.667 0 0 1-3.334 0z"/><path d="M2.554 12.208l-2.5 6.667A.833.833 0 0 0 .834 20h18.333a.833.833 0 0 0 .779-1.125l-2.5-6.667a.833.833 0 0 0-.78-.541h-1.383a9.9 9.9 0 0 0 1.384-5 6.667 6.667 0 0 0-13.334 0 11.6 11.6 0 0 0 1.413 5H3.333a.833.833 0 0 0-.779.541zM10 1.667a5 5 0 0 1 5 5c0 4.412-3.75 7.337-5 8.187a10.3 10.3 0 0 1-5-8.187 5 5 0 0 1 5-5zM5.833 13.333a12.646 12.646 0 0 0 3.75 3.225.833.833 0 0 0 .834 0 14.938 14.938 0 0 0 3.712-3.225h1.958l1.875 5H2.037l1.876-5h1.92z"/></g></svg>