<svg width="20" height="20" xmlns="http://www.w3.org/2000/svg"><g fill="#B19163"><path d="M6.722 17.517A8.426 8.426 0 0 0 12.717 20a8.526 8.526 0 0 0 6.783-3.391l.326-.435a.87.87 0 0 0 .026-1.004 8.965 8.965 0 0 0-5.291-3.73l-.435-.11a.87.87 0 0 0-.826.23l-1.16 1.157a1.204 1.204 0 0 1-1.67 0L7.283 9.53a1.183 1.183 0 0 1 0-1.67L8.439 6.7a.87.87 0 0 0 .23-.822l-.108-.435A8.965 8.965 0 0 0 4.83.153a.87.87 0 0 0-1.005.025L3.39.504A8.526 8.526 0 0 0 0 7.283a8.426 8.426 0 0 0 2.483 5.995l4.239 4.24zM4.348 1.952a7.213 7.213 0 0 1 2.509 3.87l-.814.808a2.922 2.922 0 0 0 0 4.13l3.187 3.188a2.987 2.987 0 0 0 4.13 0l.81-.809a7.183 7.183 0 0 1 3.878 2.513 6.774 6.774 0 0 1-5.33 2.609 6.691 6.691 0 0 1-4.783-1.974l-4.24-4.24a6.691 6.691 0 0 1-1.973-4.782 6.774 6.774 0 0 1 2.626-5.313z"/><path d="M14.783 9.565c.48 0 .87-.39.87-.87v-.347a4.004 4.004 0 0 0-4-4h-.349a.87.87 0 0 0 0 1.739h.348a2.26 2.26 0 0 1 2.261 2.26v.349c0 .48.39.87.87.87z"/><path d="M19.13 10.435c.48 0 .87-.39.87-.87V9.13A9.13 9.13 0 0 0 10.87 0h-.435a.87.87 0 0 0 0 1.74h.435a7.391 7.391 0 0 1 7.39 7.39v.435a.87.87 0 0 0 .87.87z"/></g></svg>