<svg viewBox="0 0 14 14" xmlns="http://www.w3.org/2000/svg"><g fill="none" fill-rule="evenodd" opacity=".7"><path d="M21.744 6.872c0 8.214-6.658 14.872-14.872 14.872C-1.342 21.744-8 15.086-8 6.872-8-1.341-1.342-8 6.872-8c8.214 0 14.872 6.659 14.872 14.872z"/><path d="M12.982 5.649c-1.483.019-2.965.008-4.447.008-.423 0-.848-.008-1.27.009-.08.002-.225.098-.225.154-.015.854-.01 1.709-.01 2.609h3.63c-.048.176-.078.303-.12.427-.557 1.65-2.262 2.47-4.09 2.17-2.27-.373-3.682-2.478-3.279-4.751.057-.322.158-.626.288-.914.75-1.65 2.607-2.652 4.444-2.251.658.144 1.22.463 1.705.885l1.985-2.001c-.045-.035-.108-.08-.167-.13C9.824.512 7.984.014 5.923.352 2.959.837.828 3.17.35 5.896a6.702 6.702 0 0 0 .357 3.597 6.838 6.838 0 0 0 7.151 4.319c1.519-.168 2.875-.716 3.936-1.847 1.563-1.664 1.964-3.678 1.716-5.883-.041-.369-.19-.438-.53-.433" fill="#FFF"/></g></svg>