<svg width="18" height="18" xmlns="http://www.w3.org/2000/svg"><g fill="#FFF" fill-rule="evenodd"><path d="M-1287-31H153v4891h-1440z"/><path d="M17.843 14.557a.783.783 0 0 0 .024-.904 8.069 8.069 0 0 0-4.762-3.358l-.392-.098a.783.783 0 0 0-.743.208l-1.045 1.04a1.084 1.084 0 0 1-1.502 0L6.554 8.578a1.064 1.064 0 0 1 0-1.502L7.595 6.03a.783.783 0 0 0 .208-.74l-.098-.39A8.069 8.069 0 0 0 4.347.136a.783.783 0 0 0-.904.023l-.39.294A7.673 7.673 0 0 0 0 6.554a7.583 7.583 0 0 0 2.234 5.396l3.816 3.816A7.583 7.583 0 0 0 11.446 18a7.673 7.673 0 0 0 6.104-3.052l.293-.391zm-6.397 1.878a6.022 6.022 0 0 1-4.305-1.777l-3.815-3.815A6.022 6.022 0 0 1 1.55 6.539 6.097 6.097 0 0 1 3.897 1.74a6.492 6.492 0 0 1 2.258 3.483l-.732.728a2.63 2.63 0 0 0 0 3.717l2.869 2.868a2.688 2.688 0 0 0 3.717 0l.728-.727a6.464 6.464 0 0 1 3.506 2.277 6.097 6.097 0 0 1-4.797 2.348z" fill-rule="nonzero"/></g></svg>