<svg width="22" height="22" xmlns="http://www.w3.org/2000/svg"><path d="M1.796 1.796a1.63 1.63 0 0 1 1.53 1.082l3.485 9.693a2.694 2.694 0 0 0 2.537 1.796h7.318a2.694 2.694 0 0 0 2.555-1.84l2.285-6.856a.898.898 0 0 0-.853-1.181h-3.592V.898A.898.898 0 0 0 16.163 0H8.98a.898.898 0 0 0-.898.898V4.49H5.837l-.79-2.218A3.43 3.43 0 0 0 1.796 0H.898a.898.898 0 0 0 0 1.796h.898zm8.082 0h5.387V4.49H9.878V1.796zm-.898 4.49h10.43l-1.9 5.67a.898.898 0 0 1-.844.615H9.348a.898.898 0 0 1-.844-.597L6.47 6.286h2.51zM6.286 18.857a2.694 2.694 0 1 0 5.387 0 2.694 2.694 0 0 0-5.387 0zm3.592 0a.898.898 0 1 1-1.796 0 .898.898 0 0 1 1.796 0zm6.285-2.694a2.694 2.694 0 1 0 0 5.388 2.694 2.694 0 0 0 0-5.388zm0 3.592a.898.898 0 1 1 0-1.796.898.898 0 0 1 0 1.796z" fill="#B7B8BA"/></svg>