<svg viewBox="0 0 18 15" xmlns="http://www.w3.org/2000/svg"><path d="M17.681 2.507a7.335 7.335 0 0 1-2.075.555 3.555 3.555 0 0 0 1.59-1.951 7.337 7.337 0 0 1-2.297.856A3.648 3.648 0 0 0 12.262.853c-1.996 0-3.614 1.58-3.614 3.527 0 .277.032.545.092.804a10.347 10.347 0 0 1-7.449-3.685c-.31.52-.49 1.127-.49 1.773 0 1.223.64 2.302 1.609 2.935a3.671 3.671 0 0 1-1.638-.44v.043c0 .452.09.882.248 1.278A3.601 3.601 0 0 0 3.672 9.27a3.777 3.777 0 0 1-.953.123 3.63 3.63 0 0 1-.68-.064c.46 1.4 1.796 2.421 3.376 2.449a7.362 7.362 0 0 1-4.489 1.51 7.54 7.54 0 0 1-.863-.049c1.601 1 3.502 1.584 5.541 1.584 5.65 0 9.123-3.88 10.039-7.905a9.6 9.6 0 0 0 .236-2.585 7.233 7.233 0 0 0 1.802-1.826" fill="#FFF" fill-rule="evenodd" opacity=".7"/></svg>