<svg viewBox="0 0 20 13" xmlns="http://www.w3.org/2000/svg"><path d="M19.46 1.828c-.242-.203-1.171-.195-2.093-.191-.942.006-1.877.01-2.093.096-.2.078-.65 1.164-1.235 2.283-.662 1.265-1.48 2.482-1.998 2.474-.67-.01-.515-2.09-.475-3.616.026-1.012-.138-1.328-.286-1.427-.358-.24-1.332-.476-1.332-.476S7.038.751 6.62 2.018c.554.073 1.51-.104 1.141 3.806-.018.19-.445 1.8-1.807-.38-.336-.54-1.643-3.794-2.092-3.807-1.51-.041-2.99-.103-3.52.19-.481.269.653 2.519 2.569 5.519 1.566 2.453 3.225 4.37 6.087 4.852.534.054 1.943.117 2.377-.095.303-.148-.065-2.276.951-2.474.458-.088 2.193 2.21 2.854 2.474.4.16 1.284.219 2.187.19.978-.031 2.08.086 2.188-.57.239-1.468-2.948-3.375-3.044-4.283-.069-.65 1.166-1.848 1.807-2.758.782-1.109 1.629-2.443 1.142-2.854" fill="#FFF" fill-rule="evenodd" opacity=".7"/></svg>