<svg width="42" height="74" xmlns="http://www.w3.org/2000/svg"><g fill="none" fill-rule="evenodd"><path fill="#FFF" d="M-699-194H741V883H-699z"/><g fill="#B19163" fill-rule="nonzero"><path d="M35.208 34.79a3.807 3.807 0 0 0-2.71-1.122 3.807 3.807 0 0 0-2.709 1.122l-1.155 1.155-2.227-2.226 1.156-1.156a3.836 3.836 0 0 0 0-5.419 3.807 3.807 0 0 0-2.71-1.122 3.807 3.807 0 0 0-2.71 1.123L20.99 28.3l-1.156-1.156a3.807 3.807 0 0 0-2.71-1.122 3.807 3.807 0 0 0-2.708 1.122 3.807 3.807 0 0 0-1.123 2.71c0 1.023.399 1.986 1.123 2.71l1.155 1.155-2.227 2.226-1.155-1.155a3.807 3.807 0 0 0-2.71-1.122A3.807 3.807 0 0 0 6.77 34.79a3.836 3.836 0 0 0 0 5.419 3.806 3.806 0 0 0 2.71 1.122 3.806 3.806 0 0 0 2.709-1.122l1.155-1.155 2.227 2.226-1.155 1.155a3.807 3.807 0 0 0-1.122 2.71c0 1.023.398 1.986 1.122 2.71a3.807 3.807 0 0 0 2.71 1.121 3.807 3.807 0 0 0 2.708-1.122L20.99 46.7l1.155 1.155a3.807 3.807 0 0 0 2.71 1.122 3.807 3.807 0 0 0 2.709-1.122 3.836 3.836 0 0 0 0-5.419l-1.156-1.155 2.227-2.227 1.155 1.156a3.807 3.807 0 0 0 2.71 1.122 3.807 3.807 0 0 0 2.71-1.122 3.836 3.836 0 0 0-.001-5.419zm-24.575 3.865a1.623 1.623 0 0 1-1.155.478 1.635 1.635 0 0 1 0-3.268c.436 0 .846.17 1.155.48l1.155 1.154-1.155 1.156zm13.065-9.956a1.624 1.624 0 0 1 1.155-.479 1.636 1.636 0 0 1 1.155 2.789l-1.155 1.156-2.31-2.31 1.155-1.156zm-2.71 2.71l2.31 2.31-2.31 2.31-2.31-2.31 2.31-2.31zm-5.498-1.555c0-.437.17-.847.478-1.155a1.623 1.623 0 0 1 1.156-.479c.436 0 .846.17 1.155.479l1.155 1.155-2.31 2.31-1.156-1.155a1.624 1.624 0 0 1-.478-1.155zm-.593 7.645l2.227-2.226 2.31 2.31-2.227 2.227-2.31-2.31zm3.382 8.801a1.622 1.622 0 0 1-1.155.479 1.62 1.62 0 0 1-1.155-.479 1.623 1.623 0 0 1-.479-1.155c0-.436.17-.847.479-1.155l1.155-1.155 1.789 1.789.521.52-1.155 1.156zm2.71-2.71l-2.228-2.226 2.227-2.227 2.227 2.227-2.227 2.227zm5.02 2.71a1.624 1.624 0 0 1-1.156.479 1.62 1.62 0 0 1-1.155-.479l-1.155-1.155 2.31-2.31 1.155 1.155a1.636 1.636 0 0 1 0 2.31zm-1.156-6.574l-.084.084-2.226-2.227 2.31-2.31L27.08 37.5l-2.227 2.226zm8.8-1.071a1.623 1.623 0 0 1-1.154.478c-.437 0-.847-.17-1.156-.478L30.188 37.5l1.155-1.156a1.624 1.624 0 0 1 1.156-.478c.436 0 .846.17 1.155.478a1.636 1.636 0 0 1 0 2.31z"/><path d="M38.813 20.957a5.018 5.018 0 0 0-3.301-2.655v-1.583c0-.62-.058-1.228-.164-1.818h1.615v-2.198h-2.266C33.13 9.008 29.464 6.41 25.204 6.41h-.464a4.276 4.276 0 0 0 .552-2.107A4.31 4.31 0 0 0 20.988 0a4.31 4.31 0 0 0-4.304 4.304c0 .765.202 1.483.553 2.106h-.464c-4.26 0-7.925 2.598-9.494 6.293H5.013V14.9h1.615c-.105.59-.164 1.197-.164 1.818v1.583a5.018 5.018 0 0 0-3.3 2.656C2.084 23.129.8 26.859.8 32.294c0 12.733 7.43 39.755 7.746 40.9L8.77 74h24.438l.223-.808c.316-1.15 7.745-28.289 7.745-40.898 0-5.435-1.285-9.165-2.363-11.337zM20.988 2.198c1.162 0 2.106.945 2.106 2.106a2.108 2.108 0 0 1-2.106 2.106 2.108 2.108 0 0 1-2.106-2.106c0-1.161.945-2.106 2.106-2.106zm-4.215 6.41h8.43a8.114 8.114 0 0 1 7.042 4.095H9.731a8.114 8.114 0 0 1 7.042-4.095zm-8.11 8.11c0-.624.073-1.232.207-1.817h24.236c.135.585.208 1.193.208 1.818v1.432H8.663v-1.432zm22.866 55.084H10.447c-.209-.775-.554-2.077-.985-3.757H32.51a342.54 342.54 0 0 1-.98 3.757zm1.536-5.955H8.905c-.112-.445-.226-.908-.344-1.385h24.847c-.117.477-.231.94-.343 1.385zm-25.04-3.583c-2.217-9.224-5.027-22.402-5.027-29.97 0-5.009 1.16-8.398 2.134-10.359a2.838 2.838 0 0 1 2.556-1.586h26.6c1.091 0 2.07.608 2.556 1.586.974 1.961 2.134 5.35 2.134 10.36 0 7.5-2.817 20.72-5.036 29.97H8.026z"/></g></g></svg>