<svg width="125" height="74" xmlns="http://www.w3.org/2000/svg"><g fill="none" fill-rule="evenodd"><path fill="#FFF" d="M-1098-194H342V883h-1440z"/><g fill="#B19163" fill-rule="nonzero"><path d="M123.596 50.702a.81.81 0 0 0 .478-.739v-5.38c0-.577-.29-1-.607-1.275v-1.59a.801.801 0 0 0 .067-.322v-3.711a.81.81 0 0 0-.81-.81h-.607a1.07 1.07 0 0 0-.447-.56l-3.34-2.047a1.111 1.111 0 0 0-.373-.142l-1.86-.336c-1.138-.68-7.134-4.034-14.522-4.034h-15.4c-.027-.02-.05-.043-.078-.06-2.169-1.413-4.82-1.476-4.983-1.48l-5.851.17C76.1 1.905 66.295.177 65.873.116A1.066 1.066 0 0 0 65.64.11L14.905 3.822a1.078 1.078 0 0 0-.975 1.316l6.8 29.733c-4.057.39-9.92.943-11.833 1.084-2.93.216-4.062 2.693-4.25 3.974a.82.82 0 0 0 .121.557l.724 1.12c-.534.05-1.203.094-1.91.094-2.197 0-2.571 3.98-2.627 5.792-.096.41-.407 1.964.032 3.414.196.648.978 1.105 2.065 1.426l-.065.01 1.248 8.81-.941-.055a.81.81 0 0 0-.858.808v2.835a.81.81 0 0 0 .752.807l107.74 7.69a.816.816 0 0 0 .508-.135l12.278-8.23a.807.807 0 0 0 .359-.672v-3.643a.81.81 0 0 0-.423-.711.807.807 0 0 0-.59-.068v-8.834l.536-.242zm-41.79-18.784h16.87c.1.16.238.297.418.388.033.018 2.918 1.515 5.056 4.123h-28.8c.229-.323.47-.627.728-.9 2.048-2.158 4.089-3.16 5.728-3.61zm25.167 4.24a1.076 1.076 0 0 0-.303.058c-1.23-1.851-2.837-3.292-4.161-4.276 4.03.17 7.598 1.396 9.903 2.409l-5.44 1.81zm-32.558 1.885c.013 0 .025.003.038.003h30.957c.175.114.376.179.583.179.115 0 .23-.025.344-.064l1.992 2.823-34.853-.521a17.74 17.74 0 0 1 .94-2.42zm-1.38 4.034l36.128.54v2.004l-36.52-.65a33.84 33.84 0 0 1 .393-1.894zm37.568 5.73v-1.716a1.11 1.11 0 0 0 .266-.135l10.98-4.008v1.49l-11.246 4.37zm10.75-9.312h.56v1.702l-10.591 3.867v-1.725c0-.02-.005-.037-.006-.057l10.037-3.787zM72.39 45.586l36.054.641v1.953l-36.243-1.012a47.46 47.46 0 0 1 .189-1.582zm-.48 8.214a58.685 58.685 0 0 1 .148-5.015l36.728 1.026c.183.173.425.28.692.29v4.76L71.91 53.8zm39.659-4.631l10.885-4.231v4.502l-10.817 4.865v-4.768c0-.13-.026-.253-.068-.368zm5.805-12.953l2.07 1.27-8.64 3.26-2.377-3.364 6.063-2.018c.406.222.632.36.642.368.117.073.249.124.384.149l1.858.335zM16.316 5.883l49.322-3.607c.837.247 8.213 3.141 7.457 26.175l-4.4.127-3.8-22.399a.805.805 0 0 0-.854-.672L21.36 8.475a.813.813 0 0 0-.591.321.804.804 0 0 0-.143.658l5.26 24.145c-.24.15-.388.23-.394.235-.26.141-.44.374-.52.636h-.006a.612.612 0 0 0-.12.003l-1.946.19-6.583-28.78zm18.778 36.523a.792.792 0 0 0-.23-.242c-.01-.008-1.044-.734-3.748-3.9-1.21-1.42-2.401-2.302-3.41-2.858a.8.8 0 0 0 .11-.492c.89-.622 2.084-1.577 3.109-2.81 1.122-1.353 4.45-1.312 5.522-1.191.042.004.066.015.126.006l21.199-.047c-3.492 2.395-6.208 6.403-7.834 11.657-1.988.243-10.362.884-14.844-.123zm1.537-13.648c-.783-.082-5.365-.447-7.365 1.965-.615.74-1.315 1.37-1.944 1.867l-4.915-22.563 41.016-2.853 3.64 21.452-2.47.072-27.962.06zM9.017 37.571c2.91-.214 14.844-1.375 15.91-1.479.368.042 2.554.404 4.958 3.22a56.395 56.395 0 0 0 2.313 2.57c-1.917-.143-3.749.108-5.419.344-2.15.304-4.004.567-5.577-.015-3.472-1.287-8.417-.752-9.402-.627a11.597 11.597 0 0 0-4.647-.216A.78.78 0 0 0 7.03 41l-.719-1.114c.173-.64.784-2.175 2.706-2.316zM2.543 47.815a.788.788 0 0 0 .028-.19c.057-2.16.605-4.173 1.012-4.306 1.73 0 3.234-.236 3.298-.247.026-.005.053-.01.078-.017.021-.006 2.132-.539 4.572.132.107.03.219.037.33.022.052-.008 5.376-.74 8.78.52 1.957.724 4.097.422 6.365.1 2.306-.326 4.689-.664 7.149.011 2.767.76 7.071.795 10.191.693 1.472-.049 6.311-.246 6.786-.72.157-.157.196-.285.31-.66 1.882-6.192 5.326-10.516 9.75-12.29l3.431-.008 14.949-.433c-1.585.682-3.333 1.8-5.059 3.62-4.71 4.963-4.816 16.738-4.765 19.685l-45.494-1.806-14.825-.506c-3.214-.045-6.408-.523-6.908-1.028-.338-1.19.019-2.56.022-2.572zm2.683 4.952c1.334.175 2.807.246 4.165.267l14.804.506 46.343 1.84c.098.03.199.05.306.05.016 0 .03 0 .045-.002.075-.003.147-.013.217-.03l38.358 1.081.45 11.455-48.462-3.126-44.16-2.867-10.858-.653-1.208-8.521zm-1.172 9.998l13.138.792 44.155 2.867 48.589 3.133v1.973l.001.013-105.883-7.56v-1.218zm118.4 1.001l-10.36 6.945v-1.956l10.36-6.71v1.721zm-1.278-2.823l-9.145 5.925-.423-10.774 9.294-4.18v9.03h.274z"/><path d="M97.662 65.143a1.35 1.35 0 0 0 .08-2.696l-6.67-.403.145-3.477a.81.81 0 0 0-1.619-.068l-.144 3.447-25.8-1.563.105-2.764a.81.81 0 0 0-1.62-.061l-.102 2.727-23.015-1.394.112-2.548a.81.81 0 0 0-.773-.845.816.816 0 0 0-.844.773l-.11 2.522-19.837-1.2.177-2.233a.81.81 0 0 0-.742-.87.8.8 0 0 0-.87.743l-.18 2.263-5.071-.307a1.34 1.34 0 0 0-1.428 1.265 1.35 1.35 0 0 0 1.265 1.428l86.86 5.261h.08zM70.189 28.17a.542.542 0 0 0 .534-.63L67.08 5.816a.54.54 0 1 0-1.065.18l3.643 21.724c.044.264.273.45.531.45zm-8.96-17.873l-35.262 2.316a.542.542 0 0 0-.492.654l3.283 15.156a.539.539 0 1 0 1.056-.23l-3.151-14.545 34.151-2.242 2.684 15.643c.05.294.329.494.622.441a.541.541 0 0 0 .441-.624l-2.764-16.122a.54.54 0 0 0-.568-.447z"/></g></g></svg>