<svg width="74" height="74" xmlns="http://www.w3.org/2000/svg"><g fill="none" fill-rule="evenodd"><path fill="#FFF" d="M-243-194h1440V883H-243z"/><g fill="#B19163" fill-rule="nonzero"><path d="M36.306 5C26.21 5 18 13.054 18 22.95v28.86c0 .596.482 1.077 1.078 1.077h34.457c.594 0 1.076-.481 1.076-1.077V22.95c0-9.896-8.21-17.95-18.305-17.95zm16.15 45.735H20.154V22.95c0-8.562 7.396-15.796 16.152-15.796s16.15 7.234 16.15 15.796v27.785z"/><path d="M26.172 42.441a1.077 1.077 0 1 0 0 2.154h21.535a1.076 1.076 0 1 0 0-2.154H26.172zM9.73 61C8.221 61 7 61.482 7 62.078c0 .594 1.222 1.076 2.73 1.076h54.54c1.51 0 2.73-.482 2.73-1.076C67 61.482 65.78 61 64.27 61H9.73zm44.45 5H17.82c-1.006 0-1.82.482-1.82 1.078 0 .593.814 1.076 1.82 1.076h36.36c1.007 0 1.82-.483 1.82-1.076 0-.596-.813-1.078-1.82-1.078zm-4.545 5h-27.27C21.61 71 21 71.482 21 72.078c0 .593.61 1.076 1.365 1.076h27.27c.755 0 1.365-.483 1.365-1.076 0-.596-.61-1.078-1.365-1.078zM30.077 26.751h4.307V37.52c0 .594.483 1.076 1.078 1.076h3.23c.595 0 1.077-.482 1.077-1.076V26.75h4.306c.596 0 1.078-.481 1.078-1.076v-3.233c0-.593-.482-1.076-1.078-1.076H39.77v-4.308c0-.593-.482-1.076-1.078-1.076h-3.23c-.594 0-1.077.483-1.077 1.076v4.308h-4.307c-.595 0-1.077.483-1.077 1.076v3.233c0 .595.483 1.076 1.077 1.076zm1.077-3.231h4.308c.594 0 1.076-.482 1.076-1.078v-4.306h1.077v4.306c0 .596.482 1.078 1.076 1.078h4.31v1.076h-4.31c-.594 0-1.076.483-1.076 1.08v10.767h-1.077V25.675c0-.596-.482-1.079-1.076-1.079h-4.308V23.52z"/><path d="M72.046 40.862c-2.496.988-4.309 2.578-5.638 4.356-.442-2.49-1.682-5.758-4.9-8.89a1.064 1.064 0 0 0-1.52.03 1.109 1.109 0 0 0 .03 1.548c4.602 4.483 4.563 9.177 4.424 10.617-.699-1.748-1.942-3.8-4.122-5.92a1.053 1.053 0 0 0-1.24-.165V23.212C59.08 10.452 48.934.07 36.467.07c-12.469 0-22.613 10.38-22.613 23.142V40.81c-.104.006-.207.01-.308.05-2.497.99-4.31 2.582-5.64 4.357-.442-2.49-1.682-5.758-4.898-8.89a1.065 1.065 0 0 0-1.522.03 1.108 1.108 0 0 0 .032 1.548c4.6 4.482 4.563 9.175 4.423 10.616-.7-1.748-1.941-3.799-4.12-5.918a1.063 1.063 0 0 0-1.523.036 1.107 1.107 0 0 0 .034 1.547c4.263 4.143 4.378 7.79 4.315 8.806l-.026.13a21.42 21.42 0 0 0-.339 2.759H3.086c-.594 0-1.077.49-1.077 1.094 0 .605.482 1.095 1.077 1.095h66.761c.595 0 1.076-.49 1.076-1.095s-.481-1.094-1.076-1.094h-.658c.007-.97.373-3.581 3.818-5.764a1.11 1.11 0 0 0 .345-1.509 1.07 1.07 0 0 0-1.485-.35c-4.29 2.72-4.816 6.152-4.826 7.623h-2.099c.026-.374.094-1.12.296-2.219l.001-.006a.124.124 0 0 0 .005-.029c.57-3.098 2.308-8.584 7.585-10.675.555-.22.829-.871.611-1.435-.215-.563-.844-.878-1.394-.655zM13.854 55.88h-3.166c.008-.904.332-3.234 3.166-5.316v5.316zm0-7.772a1.063 1.063 0 0 0-.487.15C9.075 50.977 8.55 54.41 8.54 55.88h-2.1c.026-.374.096-1.12.297-2.219l.002-.006c0-.003.002-.021.005-.029.55-3 2.21-8.231 7.11-10.46v4.942zm43.072 7.772H16.007V23.212c0-11.555 9.178-20.955 20.46-20.955 11.28 0 20.46 9.4 20.46 20.955v32.669zm6.22-2.885c-.006.04-.016.086-.024.127a21.23 21.23 0 0 0-.338 2.759H59.08v-11.44c4.012 4.039 4.13 7.564 4.066 8.554z"/></g></g></svg>