<?xml version="1.0" encoding="UTF-8"?>
<svg width="101px" height="51px" viewBox="0 0 101 51" version="1.1" xmlns="http://www.w3.org/2000/svg" xmlns:xlink="http://www.w3.org/1999/xlink">
    <!-- Generator: Sketch 51.3 (57544) - http://www.bohemiancoding.com/sketch -->
    <title>1</title>
    <desc>Created with Sketch.</desc>
    <defs></defs>
    <g id="IOS" stroke="none" stroke-width="1" fill="none" fill-rule="evenodd">
        <g id="1">
            <path d="M6.874,50 L5.082,50 L4.312,43.98 L3.542,50 L1.75,50 L0.154,40.662 L1.946,40.662 L2.73,46.92 L3.612,40.662 L5.012,40.662 L5.908,46.92 L6.678,40.662 L8.47,40.662 L6.874,50 Z M18.672,50 L16.908,50 L16.908,45.968 L15.116,45.968 L15.116,50 L13.352,50 L13.352,40.662 L15.116,40.662 L15.116,44.428 L16.908,44.428 L16.908,40.662 L18.672,40.662 L18.672,50 Z M25.892,50 L24.128,50 L24.128,40.662 L25.892,40.662 L25.892,50 Z M34.05,50 L32.286,50 L32.286,42.216 L30.872,42.216 L30.872,40.662 L35.464,40.662 L35.464,42.216 L34.05,42.216 L34.05,50 Z M44.532,50 L40.444,50 L40.444,40.662 L44.532,40.662 L44.532,42.216 L42.208,42.216 L42.208,44.47 L44.434,44.47 L44.434,46.024 L42.208,46.024 L42.208,48.446 L44.532,48.446 L44.532,50 Z M61.226,50 L59.406,50 L59.126,48.278 L57.39,48.278 L57.11,50 L55.29,50 L57.236,40.662 L59.266,40.662 L61.226,50 Z M58.93,46.724 L58.258,42.636 L57.586,46.724 L58.93,46.724 Z M71.274,50 L69.608,50 L67.718,45.058 L67.718,50 L65.954,50 L65.954,40.662 L67.718,40.662 L69.51,45.422 L69.51,40.662 L71.274,40.662 L71.274,50 Z M79.362,50.168 C77.346,50.168 76.436,48.194 76.436,45.338 C76.436,42.468 77.346,40.508 79.362,40.508 C80.664,40.508 81.392,41.502 81.7,42.706 L80.3,43.224 C80.146,42.58 79.908,42.076 79.362,42.076 C78.662,42.076 78.242,43.098 78.242,45.338 C78.242,47.564 78.662,48.6 79.362,48.6 C79.754,48.6 80.02,48.446 80.202,48.18 L80.202,46.486 L79.152,46.486 L79.152,44.932 L81.756,44.932 L81.756,48.936 C81.14,49.72 80.412,50.168 79.362,50.168 Z M91.16,50 L87.072,50 L87.072,40.662 L91.16,40.662 L91.16,42.216 L88.836,42.216 L88.836,44.47 L91.062,44.47 L91.062,46.024 L88.836,46.024 L88.836,48.446 L91.16,48.446 L91.16,50 Z M100.452,50 L96.364,50 L96.364,40.662 L98.128,40.662 L98.128,48.446 L100.452,48.446 L100.452,50 Z" id="White-angel" fill="#FFFFFF"></path>
            <path d="M36,0 L66,0 L66,30 L36,30 L36,0 Z M63,10 L48.8904726,10.6339788 C46.5888972,17.0455965 45.7636909,16.7895066 39,18.3541537 C42.4808702,18.7070581 50.9459865,17.3204247 50.1057764,12.1767645 C53.4666167,12.4890693 62.7809452,14.7876327 63,10 Z M51.3630908,13.6414741 L50.8289572,14.7126796 C53.1395349,15.4465959 58.9939985,17.8013741 60.0352588,14.3566521 L51.3630908,13.6414741 Z M50.219805,15.6214866 L49.1185296,16.8488445 C52.0802701,19.1036852 52.8004501,19.6939413 56.1552888,17.8388507 L50.219805,15.6214866 Z M48.3143286,17.5515303 L46.9819955,18.2261087 C47.684171,19.6876952 49.2595649,20.6339788 50.6339085,19.4909432 L48.3143286,17.5515303 Z" id="Combined-Shape" fill="#FFFFFF" fill-rule="nonzero"></path>
            <g id="noun_wing_2040176" transform="translate(39.000000, 10.000000)">
                <g id="Group"></g>
            </g>
        </g>
    </g>
</svg>