<?xml version="1.0" encoding="UTF-8"?>
<svg width="78px" height="20px" viewBox="0 0 78 20" version="1.1" xmlns="http://www.w3.org/2000/svg" xmlns:xlink="http://www.w3.org/1999/xlink">
    <!-- Generator: Sketch 51.3 (57544) - http://www.bohemiancoding.com/sketch -->
    <title>2</title>
    <desc>Created with Sketch.</desc>
    <defs></defs>
    <g id="IOS" stroke="none" stroke-width="1" fill="none" fill-rule="evenodd">
        <g id="2" fill="#FFFFFF">
            <path d="M12.362,14.554 C13.132,14.456 14.812,13 16.646,10.83 C19.096,7.932 21.672,3.97 21.672,1.996 C21.672,1.786 21.644,1.59 21.588,1.436 C21.532,1.296 21.378,1.24 21.196,1.24 C20.86,1.24 20.412,1.408 20.328,1.464 C20.566,1.282 21.252,0.792 21.742,0.778 C22.218,0.764 22.596,1.002 22.694,1.296 C22.764,1.492 22.806,1.716 22.806,1.954 C22.806,4.208 19.684,8.408 16.87,11.404 C14.882,13.546 13.104,14.932 12.474,15.03 C11.634,15.156 11.368,14.582 11.368,14.078 C11.368,11.698 13.874,7.47 14.924,5.972 C13.202,7.134 5.95,13.91 5.95,15.156 C5.95,15.198 6.048,15.212 6.104,15.212 C6.16,15.212 6.23,15.198 6.286,15.17 C6.3,15.17 6.16,15.422 5.88,15.422 C5.614,15.422 5.278,15.142 5.278,14.918 C5.278,13.14 11.382,4.25 11.382,2.556 C11.382,1.898 10.738,1.758 10.164,1.758 C6.664,1.758 1.344,7.582 1.344,8.45 C1.344,8.632 1.386,8.744 1.722,8.744 C2.002,8.744 2.156,8.632 2.156,8.688 C2.156,8.772 1.554,9.108 1.218,9.108 C0.588,9.108 0.364,8.548 0.364,8.24 C0.364,6.028 6.65,1.394 9.954,1.394 C11.13,1.394 12.166,1.94 12.166,3.13 C12.166,5.65 8.694,10.55 7.518,12.496 C9.926,9.416 15.638,4.18 16.254,4.18 C16.646,4.18 17.486,4.768 17.528,5.118 C17.388,4.992 17.22,5.02 17.15,5.02 C16.338,5.02 11.242,14.694 12.362,14.554 Z M25.158,4.166 C23.786,5.72 21.588,8.674 20.454,10.928 C22.05,9.234 24.458,7.554 24.934,7.554 C25.256,7.554 25.704,8.31 25.536,8.464 C25.172,8.744 23.03,11.698 22.988,12.356 C23.856,12.118 25.844,10.172 26.726,9.346 C26.824,9.276 26.894,9.388 26.852,9.43 C25.844,10.508 24.178,12.258 23.128,12.874 C23.016,12.944 22.806,13.042 22.652,13.084 C22.596,13.098 22.54,13.112 22.442,13.084 C22.162,12.986 21.84,12.496 21.84,12.244 C21.84,11.446 23.338,9.206 24.066,8.548 C23.24,8.926 22.05,9.78 21.042,10.732 C20.902,10.858 20.342,11.446 20.342,11.446 C19.922,11.894 19.614,12.314 19.474,12.65 C19.348,12.93 19.376,13.126 19.698,13.168 C19.53,13.238 19.376,13.182 19.236,13.098 C19.138,13.056 18.83,12.762 18.732,12.538 C18.69,12.426 18.718,11.978 19.138,11.054 C19.88,9.36 21.784,6.616 23.1,4.866 C23.478,4.348 24.192,3.494 24.794,2.99 C25.018,2.822 25.214,2.738 25.326,2.738 C26.11,2.738 26.656,3.564 26.39,3.41 C26.11,3.27 25.69,3.564 25.158,4.166 Z M33.74,5.062 C36.05,4.908 39.326,5.006 41.51,5.454 C41.622,5.482 41.678,5.51 41.51,5.496 C38.5,5.23 35.742,5.258 33.25,5.706 C32.774,6.322 32.312,7.008 31.78,7.792 C30.548,9.64 29.498,11.418 29.162,12.314 C29.778,12.384 32.102,10.102 32.914,9.346 C32.998,9.276 33.068,9.388 33.012,9.43 C32.326,10.214 29.904,12.762 29.05,13.07 C28.882,13.14 28.742,13.084 28.602,13.014 C28.49,12.958 28.182,12.664 28.098,12.454 C28.084,12.426 28.056,12.398 28.056,12.244 C28.056,11.992 28.294,11.404 28.84,10.41 C27.622,11.656 26.124,13.042 25.452,13.098 C25.396,13.098 25.354,13.098 25.284,13.084 C25.06,13.014 24.71,12.664 24.71,12.412 C24.71,11.6 26.74,8.548 27.636,7.834 C27.706,7.764 27.79,7.75 27.846,7.75 C28.168,7.75 28.728,8.31 28.728,8.66 C28.728,8.716 28.658,8.646 28.546,8.632 C27.972,8.576 26.054,11.768 25.886,12.342 C26.614,12.16 28.196,10.704 29.204,9.78 C29.512,9.22 29.918,8.562 30.408,7.792 L31.472,6.21 C31.374,6.154 31.29,6.07 31.206,5.972 C30.814,5.538 31.332,5.3 32.242,5.146 L32.9,4.264 C33.32,3.718 33.726,3.27 34.076,2.99 C34.272,2.822 34.454,2.71 34.594,2.71 C35.364,2.668 35.938,3.48 35.672,3.326 C35.21,3.116 34.384,4.236 33.74,5.062 Z M29.148,5.608 C29.47,5.566 29.778,5.846 29.96,6.056 C30.086,6.196 30.17,6.406 30.114,6.406 C30.086,6.406 29.974,6.35 29.82,6.42 C29.582,6.518 28.938,7.092 28.77,7.33 C28.574,7.582 28.28,7.288 28.266,7.036 C28.252,6.63 28.784,5.72 29.148,5.608 Z M32.928,11.11 C32.676,11.404 32.41,11.852 32.368,12.216 C32.354,12.384 32.48,12.482 32.788,12.482 C33.81,12.482 36.372,10.536 37.786,9.36 C37.828,9.332 37.926,9.402 37.884,9.444 C36.834,10.424 34.048,13.098 32.186,13.098 C31.752,13.098 31.192,12.594 31.192,12.216 C31.192,11.88 31.276,11.6 31.388,11.292 C31.724,10.494 32.438,9.612 33.32,8.87 C34.482,7.904 35.728,7.47 36.33,7.47 C36.54,7.47 37.184,7.792 37.184,8.184 C37.184,9.052 34.496,11.068 32.928,11.11 Z M36.736,7.89 C35.182,8.394 33.572,10.088 33.11,10.83 C34.328,10.69 36.652,8.422 36.736,7.89 Z M43.092,11.838 C43.26,11.32 43.638,10.676 43.904,10.326 C43.484,10.746 40.754,13.098 40.166,13.098 C40.138,13.098 40.068,13.07 40.04,13.056 C39.788,12.93 39.424,12.398 39.424,12.118 C39.424,10.592 42.63,7.47 45.206,7.47 C45.738,7.47 46.438,7.694 46.438,8.352 C46.438,8.59 46.312,8.828 46.172,9.01 C46.144,9.024 46.116,9.01 46.13,8.996 C46.2,8.87 46.284,8.702 46.284,8.492 C46.284,8.072 46.018,7.862 45.598,7.89 C44.786,7.932 43.764,8.52 42.854,9.29 C41.524,10.424 40.474,12.188 40.6,12.258 C40.628,12.272 40.656,12.272 40.698,12.258 C41.16,12.104 43.12,10.69 43.848,10.074 C44.1,9.85 45.01,8.968 45.36,8.772 C45.64,8.632 46.116,9.402 46.06,9.57 C45.99,9.43 44.73,10.956 44.31,11.852 C44.226,12.048 44.17,12.216 44.17,12.328 C45.052,12.076 47.054,10.158 47.922,9.346 C47.992,9.276 48.062,9.388 48.02,9.43 C46.802,10.76 44.52,13.098 43.68,13.098 C43.61,13.098 43.54,13.07 43.442,13.014 C43.246,12.902 42.98,12.608 42.98,12.356 C42.98,12.216 43.036,12.048 43.092,11.838 Z M53.34,8.45 C52.99,8.73 50.82,11.684 50.792,12.342 C51.674,12.104 53.676,10.186 54.572,9.346 C54.656,9.276 54.726,9.388 54.684,9.43 C53.466,10.76 51.184,13.07 50.344,13.07 C50.204,13.07 50.05,12.944 49.91,12.776 C49.756,12.594 49.658,12.384 49.658,12.23 C49.658,11.432 51.282,9.094 52.01,8.436 C50.862,8.954 48.804,10.648 47.768,11.768 C47.586,11.95 47.418,12.16 47.264,12.356 C46.886,12.804 46.788,13.182 46.998,13.28 C46.578,13.378 46.242,12.93 46.13,12.524 C46.102,12.426 46.172,12.048 46.522,11.404 C46.858,10.746 47.39,9.92 47.852,9.276 C48.356,8.562 48.972,7.82 49.336,7.54 C49.392,7.484 49.476,7.47 49.518,7.47 C49.868,7.47 50.4,8.016 50.4,8.366 C50.4,8.422 50.344,8.352 50.232,8.338 C50.05,8.324 49.532,8.912 49.112,9.458 C48.454,10.326 47.726,11.362 47.516,11.754 C47.67,11.53 47.936,11.25 48.23,10.97 C49.798,9.43 52.262,7.54 52.738,7.54 C53.074,7.54 53.522,8.296 53.34,8.45 Z M58.632,10.242 L57.778,11.824 C58.086,11.712 58.394,11.6 58.702,11.502 C58.926,11.432 59.15,11.474 58.954,11.544 C58.506,11.726 58.058,11.922 57.624,12.104 C55.832,15.226 53.522,18.74 50.834,19.454 C50.68,19.496 50.526,19.51 50.372,19.51 C49.854,19.51 49.42,19.272 49.42,18.684 C49.42,18.53 49.448,18.348 49.518,18.138 C50.078,16.36 52.836,14.092 56.056,12.552 C56.364,12.02 57.54,9.906 57.54,9.906 C57.554,9.892 57.204,10.144 56.938,10.382 C56.728,10.578 55.958,11.264 55.174,11.88 C54.376,12.496 53.55,13.098 53.256,13.098 C53.228,13.098 53.158,13.084 53.116,13.056 C52.864,12.902 52.514,12.398 52.514,12.118 C52.514,10.592 55.734,7.47 58.296,7.47 C58.842,7.47 59.542,7.694 59.542,8.352 C59.542,8.59 59.402,8.828 59.276,9.01 C59.248,9.024 59.234,9.01 59.248,8.996 C59.304,8.87 59.388,8.702 59.388,8.492 C59.388,8.072 59.122,7.862 58.702,7.89 C57.89,7.932 56.882,8.52 55.958,9.29 C54.628,10.424 53.606,12.146 53.746,12.258 C53.802,12.314 54.362,11.95 54.978,11.544 C55.65,11.096 56.308,10.578 56.77,10.186 C57.736,9.374 57.946,9.164 58.184,9.052 C58.45,8.926 59.038,9.682 58.982,9.85 C58.94,9.808 58.87,9.766 58.632,10.242 Z M51.072,18.432 C52.71,17.55 54.376,15.296 55.804,12.986 C53.256,14.33 51.31,15.926 50.33,17.746 C50.176,18.026 50.106,18.222 50.106,18.362 C50.106,18.558 50.232,18.628 50.414,18.628 C50.61,18.628 50.848,18.544 51.072,18.432 Z M60.48,11.11 C60.228,11.404 59.962,11.852 59.92,12.216 C59.906,12.384 60.032,12.482 60.34,12.482 C61.362,12.482 63.924,10.536 65.338,9.36 C65.38,9.332 65.478,9.402 65.436,9.444 C64.386,10.424 61.6,13.098 59.738,13.098 C59.304,13.098 58.744,12.594 58.744,12.216 C58.744,11.88 58.828,11.6 58.94,11.292 C59.276,10.494 59.99,9.612 60.872,8.87 C62.034,7.904 63.28,7.47 63.882,7.47 C64.092,7.47 64.736,7.792 64.736,8.184 C64.736,9.052 62.048,11.068 60.48,11.11 Z M64.288,7.89 C62.734,8.394 61.124,10.088 60.662,10.83 C61.88,10.69 64.204,8.422 64.288,7.89 Z M66.08,7.792 C66.948,6.434 67.844,5.216 68.572,4.264 C68.992,3.718 69.384,3.27 69.734,2.99 C69.944,2.822 70.126,2.71 70.252,2.71 C71.036,2.668 71.596,3.48 71.33,3.326 C70.84,3.102 69.93,4.418 69.314,5.174 C68.712,5.944 68.138,6.77 67.438,7.792 C66.22,9.64 65.17,11.418 64.834,12.314 C65.436,12.384 67.76,10.102 68.586,9.346 C68.67,9.276 68.726,9.388 68.684,9.43 C67.998,10.214 65.562,12.762 64.722,13.07 C64.54,13.14 64.4,13.084 64.274,13.014 C64.162,12.958 63.854,12.664 63.77,12.454 C63.756,12.426 63.728,12.398 63.728,12.244 C63.728,11.824 64.372,10.466 66.08,7.792 Z" id="White-angel"></path>
            <g id="noun_wing_2040207" transform="translate(66.000000, 2.000000)">
                <g id="Group">
                    <path d="M11.6834171,0 C11.6834171,0 13.1306533,6.98406375 7.48680905,9.77091633 C1.84484925,12.559761 0,12.3505976 0,12.3505976 C5.81532663,8.54581673 7.88630653,5.74302789 11.6834171,0 Z" id="Shape"></path>
                    <path d="M11.8548995,7.73306773 C13.0948492,13.7908367 6.04334171,13.9063745 2.18404523,13.5179283 C2.18404523,13.5179283 5.70037688,12.5896414 7.85615578,11.3904382 C10.0100503,10.1912351 11.8548995,7.73306773 11.8548995,7.73306773 Z" id="Shape"></path>
                    <path d="M10.7204774,14.2370518 C7.50188442,15.0458167 6.31281407,14.7430279 3.31846734,14.8665339 C4.99937186,16.9302789 8.92650754,15.8446215 10.7204774,14.2370518 Z" id="Shape"></path>
                </g>
            </g>
        </g>
    </g>
</svg>