<?xml version="1.0" encoding="UTF-8"?>
<svg width="101px" height="11px" viewBox="0 0 101 11" version="1.1" xmlns="http://www.w3.org/2000/svg" xmlns:xlink="http://www.w3.org/1999/xlink">
    <!-- Generator: Sketch 51.3 (57544) - http://www.bohemiancoding.com/sketch -->
    <title>3</title>
    <desc>Created with Sketch.</desc>
    <defs></defs>
    <g id="IOS" stroke="none" stroke-width="1" fill="none" fill-rule="evenodd">
        <g id="3" fill="#B19163">
            <path d="M6.874,10 L5.082,10 L4.312,3.98 L3.542,10 L1.75,10 L0.154,0.662 L1.946,0.662 L2.73,6.92 L3.612,0.662 L5.012,0.662 L5.908,6.92 L6.678,0.662 L8.47,0.662 L6.874,10 Z M18.672,10 L16.908,10 L16.908,5.968 L15.116,5.968 L15.116,10 L13.352,10 L13.352,0.662 L15.116,0.662 L15.116,4.428 L16.908,4.428 L16.908,0.662 L18.672,0.662 L18.672,10 Z M25.892,10 L24.128,10 L24.128,0.662 L25.892,0.662 L25.892,10 Z M34.05,10 L32.286,10 L32.286,2.216 L30.872,2.216 L30.872,0.662 L35.464,0.662 L35.464,2.216 L34.05,2.216 L34.05,10 Z M44.532,10 L40.444,10 L40.444,0.662 L44.532,0.662 L44.532,2.216 L42.208,2.216 L42.208,4.47 L44.434,4.47 L44.434,6.024 L42.208,6.024 L42.208,8.446 L44.532,8.446 L44.532,10 Z M61.226,10 L59.406,10 L59.126,8.278 L57.39,8.278 L57.11,10 L55.29,10 L57.236,0.662 L59.266,0.662 L61.226,10 Z M58.93,6.724 L58.258,2.636 L57.586,6.724 L58.93,6.724 Z M71.274,10 L69.608,10 L67.718,5.058 L67.718,10 L65.954,10 L65.954,0.662 L67.718,0.662 L69.51,5.422 L69.51,0.662 L71.274,0.662 L71.274,10 Z M79.362,10.168 C77.346,10.168 76.436,8.194 76.436,5.338 C76.436,2.468 77.346,0.508 79.362,0.508 C80.664,0.508 81.392,1.502 81.7,2.706 L80.3,3.224 C80.146,2.58 79.908,2.076 79.362,2.076 C78.662,2.076 78.242,3.098 78.242,5.338 C78.242,7.564 78.662,8.6 79.362,8.6 C79.754,8.6 80.02,8.446 80.202,8.18 L80.202,6.486 L79.152,6.486 L79.152,4.932 L81.756,4.932 L81.756,8.936 C81.14,9.72 80.412,10.168 79.362,10.168 Z M91.16,10 L87.072,10 L87.072,0.662 L91.16,0.662 L91.16,2.216 L88.836,2.216 L88.836,4.47 L91.062,4.47 L91.062,6.024 L88.836,6.024 L88.836,8.446 L91.16,8.446 L91.16,10 Z M100.452,10 L96.364,10 L96.364,0.662 L98.128,0.662 L98.128,8.446 L100.452,8.446 L100.452,10 Z" id="White-angel"></path>
        </g>
    </g>
</svg>