<svg width="50" height="50" xmlns="http://www.w3.org/2000/svg"><g fill="none" fill-rule="evenodd"><path d="M-1190-1343H250V845h-1440z"/><g fill="#FFF" fill-rule="nonzero"><path d="M22.54 28.303h-1.918c1.363-1.367 2.895-3.346 2.895-5.337 0-1.938-1.302-3.24-3.24-3.24a3.243 3.243 0 0 0-3.24 3.24.977.977 0 0 0 1.954 0c0-.71.577-1.287 1.286-1.287 1.287 0 1.287.968 1.287 1.287 0 2.037-2.98 4.68-4.128 5.527a.977.977 0 0 0 .578 1.763h4.527a.977.977 0 0 0 0-1.953zm7.831-8.577a.977.977 0 0 0-.976.977v8.593a.977.977 0 0 0 1.953 0v-8.593a.977.977 0 0 0-.977-.977z"/><path d="M31.986 24.018h-4.758v-3.315a.977.977 0 0 0-1.953 0v4.292c0 .54.437.976.976.976h5.735a.977.977 0 0 0 0-1.953zM25 10.024a.977.977 0 0 0-.977.977v2.018a.977.977 0 0 0 1.954 0v-2.018a.977.977 0 0 0-.977-.977zm0 25.98a.977.977 0 0 0-.977.976v2.018a.977.977 0 0 0 1.954 0V36.98a.977.977 0 0 0-.977-.976zm13.999-11.981H36.98a.977.977 0 0 0 0 1.953H39a.977.977 0 0 0 0-1.953zm-25.979 0H11a.977.977 0 0 0 0 1.953h2.019a.977.977 0 0 0 0-1.953z"/><path d="M49.023 24.023h-6.095a.977.977 0 0 0-.976.977v.04c0 9.37-7.623 16.993-16.993 16.993A16.97 16.97 0 0 1 8.447 29.066a.976.976 0 1 0-1.898.461 18.92 18.92 0 0 0 18.41 14.458c10.133 0 18.433-7.995 18.923-18.009h4.145c-.24 5.79-2.608 11.198-6.73 15.32A22.896 22.896 0 0 1 25 48.046a22.896 22.896 0 0 1-16.297-6.75c-8.986-8.986-8.986-23.607 0-32.593 8.893-8.893 23.436-8.969 32.42-.17a.977.977 0 0 0 1.373-.007l.277-.277v5.292h-5.292l.694-.694a.976.976 0 0 0-.003-1.384l-.011-.011a18.845 18.845 0 0 0-13.202-5.357c-4.173 0-8.131 1.33-11.447 3.848a19.089 19.089 0 0 0-6.729 9.737.977.977 0 0 0 1.874.551c2.112-7.173 8.816-12.183 16.302-12.183 4.118 0 8.029 1.463 11.115 4.138l-1.641 1.641a.977.977 0 0 0 .69 1.667h8.627c.54 0 .977-.437.977-.976V5.89a.977.977 0 0 0-1.668-.69l-1.273 1.274C37.146 2.263 31.183-.031 24.877 0A24.845 24.845 0 0 0 7.322 7.32C2.6 12.045 0 18.322 0 25c0 6.677 2.6 12.955 7.322 17.677C12.044 47.4 18.322 50 25 50c6.678 0 12.956-2.6 17.678-7.323A24.837 24.837 0 0 0 50 25a.977.977 0 0 0-.977-.977z"/><path d="M6.99 24.05a.977.977 0 0 0-.976.976v.014a.977.977 0 0 0 1.953 0v-.014a.977.977 0 0 0-.976-.976z"/></g></g></svg>