<svg width="60" height="52" xmlns="http://www.w3.org/2000/svg"><g fill="none" fill-rule="evenodd"><path d="M-195-1342h1440V846H-195z"/><g fill="#fff"><path d="M23.831 26.708h3.491v8.727c0 .483.392.874.874.874h2.617c.483 0 .874-.39.874-.874v-8.727h3.49c.483 0 .874-.39.874-.872v-2.618a.872.872 0 0 0-.874-.873h-3.49v-3.491a.872.872 0 0 0-.874-.874h-2.617a.873.873 0 0 0-.874.874v3.49h-3.49a.873.873 0 0 0-.874.874v2.617a.874.874 0 0 0 .873.873zm.873-2.62h3.492a.87.87 0 0 0 .872-.87v-3.493h.873v3.493c0 .481.39.87.872.87h3.493v.875h-3.493a.872.872 0 0 0-.872.872v8.727h-.873v-8.726a.872.872 0 0 0-.872-.872h-3.492v-.876z"/><path d="M58.779 37.421c-2.023.79-3.492 2.058-4.57 3.475-.358-1.986-1.363-4.592-3.97-7.093a.874.874 0 0 0-1.208 1.261c3.729 3.576 3.698 7.319 3.585 8.468-.566-1.396-1.574-3.031-3.341-4.72a.86.86 0 0 0-1.005-.132V23.346c0-10.178-8.224-18.457-18.329-18.457-10.106 0-18.328 8.28-18.328 18.457V37.38c-.084.005-.168.009-.25.04-2.023.79-3.492 2.06-4.57 3.475-.36-1.986-1.364-4.592-3.97-7.093a.874.874 0 0 0-1.208 1.261C5.342 38.64 5.312 42.38 5.2 43.53c-.568-1.395-1.574-3.03-3.34-4.719a.87.87 0 0 0-1.234.027c-.333.349-.32.9.027 1.235 3.455 3.304 3.549 6.213 3.498 7.023l-.022.104a16.797 16.797 0 0 0-.274 2.2h-.97a.872.872 0 1 0 0 1.745h54.111a.872.872 0 0 0 0-1.745h-.533c.006-.773.303-2.856 3.095-4.597a.875.875 0 0 0-.924-1.482c-3.477 2.17-3.903 4.906-3.912 6.079h-1.7c.02-.298.076-.893.239-1.77l.001-.004a.124.124 0 0 0 .004-.024c.462-2.47 1.87-6.845 6.148-8.515a.885.885 0 0 0 .495-1.143c-.174-.45-.684-.7-1.13-.523zM11.613 49.4H9.047c.006-.721.27-2.58 2.566-4.24v4.24zm0-6.198a.855.855 0 0 0-.394.119C7.74 45.49 7.314 48.227 7.306 49.4H5.605c.02-.298.076-.893.24-1.77l.001-.004.004-.024c.446-2.393 1.791-6.566 5.763-8.34v3.94zM46.524 49.4H13.358V23.346c0-9.214 7.44-16.711 16.583-16.711 9.143 0 16.583 7.496 16.583 16.71V49.4zm5.041-2.301c-.005.033-.013.068-.019.101a16.648 16.648 0 0 0-.274 2.2H48.27v-9.123c3.252 3.222 3.347 6.031 3.295 6.822z"/><path d="M50.224 18.913c.217.982.378 2.019.482 3.08a.873.873 0 0 0 1.736-.17 27.963 27.963 0 0 0-.513-3.284.877.877 0 0 0-1.04-.666.874.874 0 0 0-.665 1.04zM29.543.382c-.478-.042-.89.351-.91.833a.873.873 0 0 0 .835.91c.15.007 15.158.806 19.917 13.877a.874.874 0 0 0 1.64-.598C45.873 1.25 29.705.388 29.543.382zM38.668 39.8H21.213a.874.874 0 0 0 0 1.745h17.455a.872.872 0 1 0 0-1.746zm0 4.362H21.213a.874.874 0 0 0 0 1.746h17.455a.872.872 0 1 0 0-1.746z"/></g></g></svg>