<svg width="50" height="50" xmlns="http://www.w3.org/2000/svg"><g fill="none" fill-rule="evenodd"><path d="M-530-1343H910V845H-530z"/><g fill="#FFF"><path d="M49.475 33.954L32.72 4.934a2.911 2.911 0 0 0-1.778-1.366L18.156.135A3.91 3.91 0 0 0 16.853.01a.994.994 0 0 0-.115-.007H3.575A3.554 3.554 0 0 0 .154 2.541a3.576 3.576 0 0 0 2.825 4.561l4.781.807-2.605 2.603a2.91 2.91 0 0 0-.86 2.073v33.509A3.91 3.91 0 0 0 8.203 50h18.164a3.913 3.913 0 0 0 2.878-1.27 3.93 3.93 0 0 0 1.124.166c.677 0 1.345-.177 1.947-.524l15.73-9.082a3.88 3.88 0 0 0 1.82-2.372 3.881 3.881 0 0 0-.39-2.964zM3.305 5.177a1.6 1.6 0 0 1-1.109-.745 1.6 1.6 0 0 1-.173-1.325 1.612 1.612 0 0 1 1.552-1.15H13.72L9.457 6.214 3.305 5.177zm9.268.686l-.226.84-.526-.089.752-.751zm13.793 42.184h-15.43v-8.592a.977.977 0 1 0-1.953 0v8.592h-.781a1.955 1.955 0 0 1-1.953-1.953v-33.51a.97.97 0 0 1 .286-.69l3.59-3.586 1.713.29-1.906 7.1a2.91 2.91 0 0 0 .292 2.224l16.755 29.02c.153.266.335.508.54.726-.33.241-.732.379-1.153.379zm21.612-11.634a1.94 1.94 0 0 1-.91 1.185l-15.73 9.082a1.94 1.94 0 0 1-1.482.195 1.94 1.94 0 0 1-1.186-.91l-16.755-29.02a.97.97 0 0 1-.097-.74l1.955-7.28 2.925.493c.068.369.199.726.392 1.06a3.298 3.298 0 0 0 2.016 1.547 3.3 3.3 0 0 0 2.52-.332 3.298 3.298 0 0 0 1.546-2.016 3.298 3.298 0 0 0-.331-2.52 3.298 3.298 0 0 0-2.016-1.546 3.299 3.299 0 0 0-2.52.332 3.296 3.296 0 0 0-1.377 1.533l-2.646-.446.974-3.63a1.94 1.94 0 0 1 .911-1.185 1.942 1.942 0 0 1 1.482-.194l7.406 1.989.02.039 4.737 8.205a.976.976 0 1 0 1.692-.977L27.72 4.726l2.715.729a.97.97 0 0 1 .592.455l16.755 29.02c.261.452.33.979.195 1.483zM19.172 7.855l-.15-.025a1.358 1.358 0 0 1 1.297-.332c.353.094.648.32.83.637.183.316.231.684.137 1.037a1.358 1.358 0 0 1-.637.83 1.357 1.357 0 0 1-1.038.137 1.358 1.358 0 0 1-.602-.344h.002a.977.977 0 0 0 .161-1.94z"/><path d="M42.168 30.693a3.431 3.431 0 0 0-4.682-1.254 3.431 3.431 0 0 0-1.255 4.682 3.43 3.43 0 0 0 6.28-.827 3.405 3.405 0 0 0-.343-2.6zm-1.544 2.095a1.476 1.476 0 0 1-2.7.356 1.476 1.476 0 0 1 1.657-2.161c.38.102.698.346.895.687.197.34.25.738.148 1.118zm-11.537-6.295a3.405 3.405 0 0 0-2.08-1.597 3.406 3.406 0 0 0-2.602.343 3.405 3.405 0 0 0-1.596 2.08 3.43 3.43 0 0 0 6.621 1.774 3.405 3.405 0 0 0-.343-2.6zm-1.544 2.095a1.476 1.476 0 0 1-2.848-.763c.102-.38.346-.698.687-.895a1.466 1.466 0 0 1 1.119-.147c.38.102.698.346.895.687.197.34.25.738.147 1.118zm4.73-5.504a.977.977 0 0 0-.976.977v14.442a.977.977 0 1 0 1.953 0V24.06a.977.977 0 0 0-.977-.977zM10.65 33.774a.984.984 0 0 0-.69-.286.984.984 0 0 0-.69.286.985.985 0 0 0-.287.692c0 .256.105.508.286.69a.983.983 0 0 0 .69.285.983.983 0 0 0 .691-.285.986.986 0 0 0 .286-.69.985.985 0 0 0-.286-.692zm23.193-18.378a.984.984 0 0 0-.69-.287.986.986 0 0 0-.691.287.981.981 0 0 0 0 1.38.982.982 0 0 0 1.382 0 .984.984 0 0 0 .286-.69.986.986 0 0 0-.287-.69z"/></g></g></svg>