<svg width="50" height="50" xmlns="http://www.w3.org/2000/svg"><g fill="none" fill-rule="evenodd"><path d="M-860-1343H580V845H-860z"/><g fill-rule="nonzero" fill="#FFF"><path d="M5.225 43.782a.977.977 0 0 0-.976.977v.015a.977.977 0 1 0 1.953 0v-.015a.977.977 0 0 0-.977-.977zm0-12.337a.977.977 0 0 0-.976.976v8.692a.977.977 0 1 0 1.953 0V32.42a.977.977 0 0 0-.977-.976zM49.927 7.422a1.456 1.456 0 0 0-1.183-.997l-5.336-.774L41.021.817a1.456 1.456 0 0 0-1.314-.816c-.562 0-1.065.313-1.314.817L36.01 5.654l-5.336.776a1.456 1.456 0 0 0-1.182.998 1.456 1.456 0 0 0 .37 1.501l3.863 3.763-.91 5.314a1.456 1.456 0 0 0 .583 1.433 1.46 1.46 0 0 0 1.543.11l4.772-2.51 4.772 2.508a1.456 1.456 0 0 0 1.543-.112c.455-.33.678-.879.583-1.433l-.913-5.314 3.86-3.764c.402-.392.544-.968.37-1.502zM44.15 11.47a1.465 1.465 0 0 0-.42 1.297l.788 4.592-4.124-2.167a1.465 1.465 0 0 0-1.364 0l-4.123 2.17.786-4.593a1.465 1.465 0 0 0-.422-1.296L31.933 8.22l4.61-.671c.478-.07.89-.37 1.104-.802l2.06-4.178 2.064 4.177c.213.433.626.732 1.103.801l4.611.67-3.336 3.252zm-27.265 6.976a.98.98 0 0 0-1.38 0 .982.982 0 0 0-.287.69c0 .257.105.509.286.69a.984.984 0 0 0 .69.287.984.984 0 0 0 .691-.287.986.986 0 0 0 .286-.69.984.984 0 0 0-.286-.69z"/><path d="M40.856 36.914a3.995 3.995 0 0 0 1.388-3.028 4.01 4.01 0 0 0-3.606-3.983 3.98 3.98 0 0 0 .579-2.071 4.008 4.008 0 0 0-4.004-4.004H23.869l2.917-6.021a6.835 6.835 0 0 0-.958-7.424L24.723 9.09a.976.976 0 0 0-1.494.012l-5.02 6.067a.976.976 0 1 0 1.504 1.245l4.28-5.173.35.41a4.882 4.882 0 0 1 .685 5.303l-3.74 7.72a.977.977 0 0 0-.098.426v1.783c0 2.923-2.378 5.3-5.3 5.3h-.901a.977.977 0 1 0 0 1.954h.9c4 0 7.254-3.254 7.254-7.254V25.78h1.348a3.995 3.995 0 0 0 .821 5.078 3.995 3.995 0 0 0 0 6.055 3.995 3.995 0 0 0 0 6.054 3.995 3.995 0 0 0-.82 5.078h-8.098c-1.486 0-2.941-.275-4.324-.817l-1.6-.628V27.587l4.11-4.968a.976.976 0 1 0-1.505-1.245l-2.714 3.28a.976.976 0 0 0-.868-.53H.977a.977.977 0 0 0-.977.977v23.921c0 .54.437.977.977.977h8.517a.976.976 0 0 0 .976-.977V48.7l.887.348a13.74 13.74 0 0 0 5.038.952h18.818a4.008 4.008 0 0 0 4.004-4.003 3.98 3.98 0 0 0-.579-2.071 4.01 4.01 0 0 0 3.606-3.984 3.995 3.995 0 0 0-1.388-3.027zM8.517 48.046H1.953V26.077h6.564v21.969zM27.93 25.78h7.283c1.13 0 2.05.92 2.05 2.051 0 1.13-.92 2.05-2.05 2.05h-7.284c-1.131 0-2.051-.92-2.051-2.05s.92-2.05 2.05-2.05zm7.284 22.265H27.93a2.053 2.053 0 0 1-2.051-2.05c0-1.131.92-2.051 2.05-2.051h7.285c1.13 0 2.05.92 2.05 2.05 0 1.131-.92 2.051-2.05 2.051zm3.027-6.054H27.929a2.053 2.053 0 0 1-2.051-2.051c0-1.13.92-2.05 2.05-2.05H38.24c1.13 0 2.05.92 2.05 2.05s-.92 2.05-2.05 2.05zm0-6.055H27.929a2.053 2.053 0 0 1-2.051-2.05c0-1.131.92-2.051 2.05-2.051H38.24c1.13 0 2.05.92 2.05 2.05 0 1.131-.92 2.051-2.05 2.051z"/></g></g></svg>