<svg width="35" height="40" xmlns="http://www.w3.org/2000/svg"><g fill="none" fill-rule="evenodd"><path fill="#FFF" d="M-703-1756H737V432H-703z"/><g fill="#B19163" fill-rule="nonzero"><path d="M26.573 0H4.698A4.693 4.693 0 0 0 .01 4.688v25.937h4.688V40h23.046V29.491l-2.343 1.173v6.992H7.04V9.375H25.4v11.68l2.343-1.172V9.227a4.696 4.696 0 0 0 3.516-4.54A4.693 4.693 0 0 0 26.572 0zM4.698 7.031v21.25H2.353V4.688a2.346 2.346 0 0 1 2.343-2.344A2.346 2.346 0 0 1 7.04 4.688 2.346 2.346 0 0 1 4.697 7.03zm21.875 0H8.754c.4-.69.631-1.49.631-2.343 0-.854-.23-1.654-.63-2.344h17.818a2.346 2.346 0 0 1 2.343 2.344 2.346 2.346 0 0 1-2.343 2.343z"/><path d="M33.243 19.753L13.78 29.488l-2.62 3.494h4.368l19.462-9.735zM9.385 16.406h13.672v2.344H9.385zm0-4.687h13.672v2.344H9.385zm0 9.375h8.984v2.344H9.385z"/></g></g></svg>