<svg width="20" height="17" xmlns="http://www.w3.org/2000/svg"><g fill="none" fill-rule="evenodd"><path fill="#FFF" d="M-125-1126h1440V355H-125z"/><path d="M3.333 16.667h13.334A3.333 3.333 0 0 0 20 13.333v-10A3.333 3.333 0 0 0 16.667 0H3.333A3.333 3.333 0 0 0 0 3.333v10a3.333 3.333 0 0 0 3.333 3.334zM6.358 8.37l-4.65 5.316a1.667 1.667 0 0 1-.041-.354V3.68l4.691 4.692zM3.333 15a1.575 1.575 0 0 1-.487-.083l4.696-5.363.396.417a2.917 2.917 0 0 0 4.125 0l.395-.417 4.696 5.363a1.575 1.575 0 0 1-.487.083H3.333zm15-11.32v9.653c0 .12-.015.238-.041.354l-4.65-5.316 4.691-4.692zm-1.666-2.013c.356 0 .703.117.987.333l-6.77 6.77c-.496.47-1.272.47-1.767 0L2.346 2a1.63 1.63 0 0 1 .987-.333h13.334z" fill="#B19163" fill-rule="nonzero"/></g></svg>